<?xml version="1.0" encoding="UTF-8" standalone="no"?>
<!-- Created with Inkscape (http://www.inkscape.org/) -->

<svg
   version="1.1"
   id="svg1"
   width="384"
   height="408.32001"
   viewBox="0 0 384 408.32001"
   xmlns="http://www.w3.org/2000/svg"
   xmlns:svg="http://www.w3.org/2000/svg">
  <defs
     id="defs1" />
  <g
     id="g1">
    <path
       style="fill:#1a1a1a"
       d="m 170.3578,378.20152 -7.60949,-7.84 -6.94711,-7.14729 -6.94712,-7.14729 3.835,-5.70346 3.83499,-5.70346 15.41696,-18.32473 15.41695,-18.32474 v -0.51157 -0.51158 l -10.84546,-10.83138 -10.84546,-10.83138 -8.19454,-11.73466 -8.19454,-11.73465 -21.51882,0.0898 -21.51881,0.0898 -4.08119,-2.28059 -4.081183,-2.28059 -10.240003,-3.30147 -10.24,-3.30147 -5.008512,-2.59122 -5.008513,-2.59122 -0.850931,-1.34344 -0.850932,-1.34345 L 55.25853,219.84643 44.637974,196.69138 v -0.43342 -0.43342 l 0.961353,0.3689 0.961353,0.36891 15.403654,13.61956 15.403654,13.61957 1.074993,0.44669 1.074993,0.44669 18.630003,1.68267 18.630003,1.68267 8.99912,-4.50814 8.99911,-4.50814 0.29423,-0.50122 0.29423,-0.50122 2.72683,-19.2 2.72684,-19.2 6.93617,-7.04 6.93617,-7.04 -1.79154,-15.19186 -1.79155,-15.19186 -0.34238,-0.34238 -0.34238,-0.34238 -18.36185,9.34857 -18.36186,9.34856 -1.73057,-1.12228 -1.73057,-1.12229 -16.504583,-10.85828 -16.504571,-10.85831 0.184574,-0.50933 0.184574,-0.50933 13.434663,-9.97352 13.434673,-9.97351 0.64533,0.22791 0.64534,0.22792 8.67116,2.39231 8.67116,2.39231 18.61881,-7.44822 18.61881,-7.448212 9.19003,6.007182 9.19003,6.00718 8.24232,17.86993 8.24233,17.86993 -3.81754,19.33301 -3.81754,19.33301 0.45823,-0.2832 0.45824,-0.28321 13.59982,-19.27298 13.59983,-19.27298 -0.11492,-5.67959 -0.11491,-5.6796 -2.56203,-11.69723 -2.56202,-11.69723 0.15371,-3.84 0.15371,-3.84 -3.29045,-5.117162 -3.29046,-5.11716 0.45084,-0.40145 0.45084,-0.40145 16.16,-11.02028 16.16,-11.02029 v -0.27881 -0.27882 l -3.2,-7.00458 -3.2,-7.00458 v -0.43017 -0.43017 l 2.95282,-6.46754 2.95282,-6.46754 0.2283,-0.24779 0.2283,-0.24778 9.45888,4.20505 9.45888,4.20506 7.68,1.92073 7.68,1.92073 2.79136,3.082 2.79136,3.082 1.84864,2.8453 1.84864,2.8453 v 0.45442 0.45441 l -20.48,17.10048 -20.48,17.100472 v 0.40039 0.40038 l 2.87777,22.39942 2.87777,22.39943 0.002,0.78033 0.002,0.78034 3.68,2.34499 3.68,2.34499 3.07982,2.56761 3.07981,2.56761 3.32019,-0.75397 3.32018,-0.75397 26.88,-7.27067 26.88,-7.27067 22.54426,22.4917 22.54425,22.49171 -0.93277,6.08 -0.93278,6.08 -0.0115,2.90203 -0.0115,2.90204 -19.47254,14.82412 -19.47255,14.82412 -24.84745,-9.18964 -24.84746,-9.18964 -1.10527,1.38349 -1.10527,1.38348 -1.66366,4.94909 -1.66365,4.94909 2.21314,7.85091 2.21313,7.85091 0.74529,8 0.74529,8 0.29829,1.42245 0.29828,1.42244 1.75221,-0.2803 1.75222,-0.2803 4.8,-0.39168 4.8,-0.39167 4.45887,-6.42385 4.45888,-6.42384 0.72074,-0.27658 0.72074,-0.27657 18.18038,8.73353 18.18039,8.73354 0.25711,0.24686 0.2571,0.24686 -7.91094,13.76566 -7.91095,13.76567 -1.94616,0.30894 -1.94616,0.30894 -12.48,1.04814 -12.48,1.04814 -15.58431,4.1505 -15.58431,4.15051 -0.51057,-0.54369 -0.51058,-0.5437 -8.30846,-23.06174 -8.30845,-23.06174 -2.64381,-5.25826 -2.6438,-5.25826 h -0.87836 -0.87836 l -17.76953,4.78837 -17.76953,4.78837 -0.31603,0.31603 -0.31602,0.31602 8.48722,11.18765 8.48723,11.18765 5.05756,23.18677 5.05756,23.18678 -0.17372,0.42984 -0.17373,0.42984 -17.33189,15.79954 -17.3319,15.79953 -5.7081,13.71418 -5.70811,13.71419 -0.69535,0.0176 -0.69535,0.0176 z m 13.7815,-7.58943 5.40096,-12.86943 17.43964,-15.95437 17.43964,-15.95437 -0.27483,-0.7762 -0.27484,-0.7762 -4.78487,-21.8969 -4.78487,-21.8969 -11.41798,-15.2231 -11.41798,-15.2231 -2.3731,-3.28574 -2.37309,-3.28575 v -0.71425 -0.71426 l 0.48,0.0147 0.48,0.0146 4.78036,6.70535 4.78037,6.70535 h 0.55614 0.55614 l 19.16002,-5.17137 19.16001,-5.17138 7.82348,1.38694 7.82348,1.38694 0.26666,0.26443 0.26667,0.26444 -0.4307,0.43071 -0.43071,0.4307 -6.44526,-1.12807 -6.44525,-1.12808 -0.31178,0.31178 -0.31178,0.31178 2.37012,4.70559 2.37013,4.70559 8.23095,22.67087 8.23095,22.67087 v 0.20913 0.20913 h 1.02233 1.02233 l 14.17767,-3.79813 14.17767,-3.79813 13.99303,-1.2669 13.99303,-1.2669 0.52347,-0.53497 0.52347,-0.53497 7.13837,-12.37179 7.13838,-12.37179 -0.21488,-0.18231 -0.21487,-0.1823 -5.68859,-2.6459 -5.6886,-2.64591 h -0.25237 -0.25237 l -2.84381,6.12718 -2.84382,6.12718 -0.61672,-0.38116 -0.61673,-0.38115 0.99507,-2.38603 0.99506,-2.38602 1.88834,-3.74476 1.88835,-3.74476 -0.20191,-0.17825 -0.2019,-0.17824 -3.33873,-1.677 -3.33872,-1.67699 h -0.83175 -0.83175 l -2.19608,3.67159 -2.19607,3.67159 -2.50756,2.72038 -2.50756,2.72038 -0.62389,-0.38559 -0.62389,-0.38558 2.21876,-2.32638 2.21877,-2.32639 2.59875,-4.14714 2.59876,-4.14715 -0.11952,-0.099 -0.11952,-0.0989 -5.83033,-2.9153 -5.83034,-2.91529 -4.61894,6.62811 -4.61895,6.62812 -2.99072,0.35807 -2.99072,0.35807 -4.25805,0.40313 -4.25804,0.40313 -3.18095,6.81208 -3.18095,6.81207 -0.44413,1.44 -0.44414,1.44 h -0.66625 -0.66625 l 0.42674,-1.76 0.42674,-1.76 3.35399,-7.04 3.35399,-7.04 -1.08969,-10.05321 -1.0897,-10.0532 -1.94769,-6.5868 -1.9477,-6.58679 -1.06626,-4.8 -1.06626,-4.8 -2.1677,-4.73013 -2.1677,-4.73013 v -0.54987 -0.54987 h 0.49966 0.49965 l 2.37167,4.79306 2.37167,4.79306 0.41047,2.56694 0.41047,2.56694 h 0.44133 0.44132 l 1.06957,-3.36 1.06956,-3.36 1.23765,-2.01379 1.23764,-2.0138 14.60967,5.39179 14.60967,5.39178 10.66551,3.88936 10.6655,3.88936 18.84281,-14.30735 18.8428,-14.30735 0.38596,-5.12 0.38597,-5.12 0.39543,-3.52 0.39542,-3.52 -21.71947,-21.66626 -21.71946,-21.66627 -12.41024,3.31641 -12.41023,3.31641 -16.64,4.46763 -16.64,4.46762 -1.03424,0.29814 -1.03424,0.29814 -4.40576,-3.39967 -4.40576,-3.39967 -1.81553,-1.14738 -1.81553,-1.14737 -0.21642,0.21641 -0.21641,0.21642 0.90195,3.83472 0.90194,3.83472 0.01,4.67777 0.01,4.67777 -0.64,-0.39554 -0.64,-0.39554 v -3.7517 -3.75169 l -1.251,-5.33054 -1.25101,-5.33053 -2.92404,-23.36 -2.92403,-23.36 -0.22978,-0.65642 -0.22978,-0.65642 -3.91518,-0.80867 -3.91518,-0.808672 v -0.61491 -0.61491 h 0.76147 0.76148 l 3.60872,0.74537 3.60872,0.74537 19.4698,-16.19973 19.46981,-16.19973 0.54357,-0.48122 0.54358,-0.48121 -0.39538,-1.24572 -0.39537,-1.24572 -3.54708,-4.0987 -3.54707,-4.09871 -2.27504,-0.79209 -2.27504,-0.79208 -0.49538,0.30615 -0.49537,0.30616 -0.28627,2.40593 -0.28628,2.40593 0.78215,1.87509 0.78215,1.87509 -0.65393,1.96491 -0.65394,1.96491 -0.55621,0.61156 -0.55621,0.61156 0.005,-3.17156 0.005,-3.17156 -0.0321,-4.2251 -0.0321,-4.2251 -3.64898,-0.81526 -3.64897,-0.81526 -3.45838,-1.52793 -3.45838,-1.52793 -0.32619,0.3262 -0.32619,0.32619 0.77892,7.20209 0.77893,7.2021 0.92564,1.41748 0.92565,1.41749 v 1.02029 1.02028 l -0.64455,-0.39835 -0.64455,-0.39836 -1.00551,-1.94443 -1.00551,-1.94444 -0.88883,-8.02053 -0.88882,-8.02053 -0.18112,-0.16515 -0.18111,-0.16516 -4.40852,-1.98929 -4.40853,-1.9893 h -0.26916 -0.26916 l -2.76925,5.82746 -2.76925,5.82746 3.49327,7.6942 3.49327,7.69421 -0.52634,0.46493 -0.52633,0.46494 -16.13227,10.99608 -16.13228,10.99609 3.17228,4.85943 3.17227,4.859432 v 5.001 5.00099 l 2.24,10.31378 2.24,10.31378 0.045,3.32311 0.045,3.32311 0.55004,1.28 0.55003,1.28 0.045,-0.73893 0.045,-0.73894 4.46925,-6.78106 4.46924,-6.78107 h 0.65076 0.65075 v 0.52735 0.52734 l -2.26885,3.15266 -2.26885,3.15265 -3.29417,5.44 -3.29417,5.44 -15.16886,21.47867 -15.16887,21.47867 -0.72487,4.76133 -0.72487,4.76133 -0.99468,3.04 -0.99468,3.04 h -0.58857 -0.58856 v -0.3281 -0.3281 l 1.28,-4.61904 1.28,-4.61903 v -1.76185 -1.76185 l 4.47856,-22.27991 4.47856,-22.27991 -7.07971,-15.33111 -7.07971,-15.3311 -0.96353,-2.33799 -0.96353,-2.33799 -8.50907,-5.50201 -8.50907,-5.50201 h -0.6663 -0.6663 l -17.49995,7.08003 -17.49995,7.08003 -1.28,0.006 -1.28,0.006 -7.96645,-2.28609 -7.96644,-2.28609 h -0.7354 -0.7354 l -12.098163,8.97047 -12.098153,8.97046 -0.177441,0.52186 -0.177442,0.52186 5.462001,3.63489 5.462005,3.63489 3.99544,-3.08627 3.99544,-3.08627 3.310843,-2.37937 3.31084,-2.37937 0.369,0.59706 0.369,0.59705 -6.719843,4.99826 -6.71984,4.99826 v 0.42242 0.42242 l 4.99709,3.28069 4.997103,3.28069 h 0.51424 0.51423 l 7.21734,-5.12 7.21733,-5.12 h 0.39134 0.39133 v 0.60891 0.6089 l -7.0243,4.9911 -7.02429,4.99109 -0.002,0.32 -0.002,0.32 4.14047,2.72 4.14048,2.72 h 0.58356 0.58357 l 18.14264,-9.23048 18.14265,-9.23049 0.64,-1.79351 0.64,-1.79351 1.79951,-1.61601 1.79952,-1.616 0.36475,-2.72 0.36475,-2.72 h 0.63716 0.63716 l -0.31788,3.3083 -0.31789,3.30831 -2.149,1.75392 -2.14899,1.75393 0.0338,2.45777 0.0339,2.45777 1.8087,15.50645 1.8087,15.50645 -6.91548,6.58849 -6.91548,6.58849 -2.70698,18.86506 -2.70698,18.86506 0.11791,0.13921 0.11792,0.13922 2.46232,-0.75571 2.46231,-0.75571 1.88531,-2.5835 1.88531,-2.58351 1.78985,-3.52 1.78985,-3.52 1.34998,-1.21919 1.34998,-1.21919 0.0268,-1.98081 0.0268,-1.98081 1.1578,-2.1732 1.15781,-2.17319 0.38041,0.61551 0.38041,0.61552 -0.89695,2.51768 -0.89695,2.51768 -0.0281,1.34081 -0.0281,1.34081 -1.3481,1.21919 -1.34811,1.21919 -1.27761,2.56 -1.27761,2.56 -2.33317,3.65373 -2.33317,3.65373 -2.88112,1.07508 -2.88111,1.07508 -10.24,5.15858 -10.24,5.15858 -19.840003,-1.80573 -19.840004,-1.80573 -3.52,-3.06818 -3.52,-3.06817 -11.2,-9.89742 -11.2,-9.89743 -0.145634,0.12291 -0.145633,0.12291 10.085272,21.90927 10.085273,21.90928 4.460361,2.51808 4.460361,2.51808 11.086512,3.58103 11.086512,3.58103 3.741183,2.19265 3.74118,2.19264 h 21.49652 21.49652 l 6.49003,-0.97478 6.49003,-0.97479 4.54576,3.11897 4.54576,3.11898 3.04,1.14276 3.04,1.14276 v 0.55305 0.55305 h -0.62705 -0.62705 l -2.73295,-1.07353 -2.73295,-1.07353 -4.48039,-2.99826 -4.48038,-2.99827 -4.97493,0.78044 -4.97492,0.78044 -0.35219,0.35219 -0.35219,0.35219 8.01393,11.41917 8.01393,11.41916 10.91357,10.87294 10.91357,10.87294 v 0.52651 0.52651 l -15.1901,18.04055 -15.19009,18.04055 -4.09023,5.9841 -4.09022,5.98409 4.69171,4.72323 4.69171,4.72324 3.18431,-5.74733 3.18432,-5.74733 h 0.52429 0.5243 v 0.6563 0.65631 l -3.16827,5.58369 -3.16827,5.5837 4.88134,4.9279 4.88133,4.92789 0.4546,-0.28096 0.45459,-0.28095 2.70213,-7.36694 2.70214,-7.36694 h 0.5702 0.57021 v 0.59592 0.59592 l -2.92356,7.81547 -2.92356,7.81547 2.73681,2.78861 2.73681,2.78861 h 0.35693 0.35693 z m -81.68272,-124.35368 -4.581393,-0.87509 -3.41861,-1.11042 -3.4186,-1.11042 -5.068433,-2.60821 -5.06843,-2.60821 -4.53157,-4.52797 -4.53157,-4.52798 -2.142128,-3.63791 -2.142129,-3.63791 0.255072,-0.76521 0.255072,-0.76522 2.39849,3.2674 2.39849,3.26739 3.121278,2.29123 3.121278,2.29123 4.815466,2.22488 4.815464,2.22489 6.91182,1.73418 6.911833,1.73419 11.84,0.007 11.84,0.007 6.41358,-1.71943 6.41358,-1.71943 7.44769,-2.56807 7.44768,-2.56808 6.61874,-3.16554 6.61873,-3.16555 6.72,-4.10083 6.72,-4.10082 5.93977,-4.22688 5.93977,-4.22687 6.86023,-3.49367 6.86023,-3.49367 8.96,-3.55243 8.96,-3.55243 9.35821,-2.88834 9.35821,-2.88833 5.345,-0.6702 5.345,-0.67021 10.25679,-0.0101 10.25679,-0.0101 7.58066,-0.62807 7.58067,-0.62807 3.88816,-1.00752 3.88815,-1.00752 3.60947,-1.82206 3.60947,-1.82205 0.84008,-1.01222 0.84007,-1.01223 h 0.88163 0.88164 v 0.51964 0.51965 l -1.79127,1.32434 -1.79128,1.32435 -3.32462,1.68471 -3.32463,1.68472 -5.2841,1.30431 -5.2841,1.30431 -19.52,0.54435 -19.52,0.54434 -7.36,1.93914 -7.36,1.93915 -6.72,2.34099 -6.72,2.341 -7.04,2.87533 -7.04,2.87533 -5.47381,2.82679 -5.47381,2.82679 -4.76619,3.22904 -4.76619,3.22904 -6.08,4.06377 -6.08,4.06377 -6.08,3.2336 -6.08,3.2336 -7.25921,2.91243 -7.25921,2.91243 -6.7813,1.97544 -6.7813,1.97543 -4.73579,0.90611 -4.73579,0.9061 -8.4237,-0.003 -8.4237,-0.003 -5.86984,-0.95201 -5.869833,-0.95202 -5.01017,-1.60849 -5.010163,-1.6085 -4.114892,-2.22869 -4.114892,-2.22869 -0.235675,0.23568 -0.235675,0.23567 3.710567,2.9533 3.710567,2.9533 4.327235,2.2815 4.327238,2.2815 6.23276,1.68126 6.232773,1.68126 11.52,0.004 11.52,0.004 7.43402,-1.3944 7.43403,-1.39439 7.60597,-2.18964 7.60598,-2.18963 6.72,-2.45628 6.72,-2.45627 24.96,-12.38604 24.96,-12.38605 8,-3.36073 8,-3.36073 7.04,-2.30705 7.04,-2.30705 4.14867,-1.04632 4.14867,-1.04633 5.13133,-0.92316 5.13133,-0.92315 7.36,-0.37906 7.36,-0.37906 6.08,0.74821 6.08,0.7482 5.0967,1.29859 5.0967,1.29858 2.14936,0.89806 2.14936,0.89806 -0.36481,0.59027 -0.3648,0.59026 -4.4549,-1.50719 -4.45489,-1.5072 -4.98636,-0.9322 -4.98636,-0.93219 -5.44,-0.43964 -5.44,-0.43963 -7.36,0.72788 -7.36,0.72788 -7.2629,1.62051 -7.26289,1.62051 -7.45711,2.56581 -7.4571,2.56581 -8,3.40304 -8,3.40304 -24.32,12.08343 -24.32,12.08344 -7.36,2.67137 -7.36,2.67138 -5.5777,1.66205 -5.5777,1.66205 -7.8623,1.59926 -7.8623,1.59927 -11.52,0.2748 -11.52,0.27479 z m 210.15753,-25.36311 -2.42388,-0.42004 -1.91964,-1.83914 -1.91964,-1.83913 -0.36587,-1.45773 -0.36586,-1.45774 h -1.53301 -1.533 l -5.37607,-3.72674 -5.37607,-3.72675 -4.86155,-2.11967 -4.86154,-2.11968 v -0.55358 -0.55358 h 0.83385 0.83386 l 5.08614,2.46413 5.08615,2.46413 4.36888,3.05952 4.36889,3.05953 9.39111,-0.53089 9.39112,-0.53089 2.36886,0.11025 2.36886,0.11025 4.91173,-5.74301 4.91173,-5.74302 0.71941,-0.007 0.71941,-0.007 7.55584,-0.66287 7.55584,-0.66286 1.5415,-0.58608 1.5415,-0.58608 0.36059,0.58344 0.36058,0.58343 -1.24131,0.66433 -1.2413,0.66432 -7.25662,0.64231 -7.25662,0.64231 -1.31576,0.005 -1.31576,0.005 -5.07717,6.09432 -5.07717,6.09432 -1.2401,-0.17432 -1.2401,-0.17432 -0.51004,1.94404 -0.51004,1.94404 -1.77693,1.67633 -1.77693,1.67634 -2.24,0.57654 -2.24,0.57654 z m 6.43982,-2.53646 2.09595,-1.27791 0.62405,-1.64137 0.62405,-1.64137 v -0.59833 -0.59834 h -1.29584 -1.29584 l -0.59353,1.56109 -0.59352,1.56109 -1.26856,0.67891 -1.26856,0.67891 h -2.3453 -2.3453 l -1.79355,-1.92 -1.79355,-1.92 h -0.38323 -0.38322 v 1.024 1.024 l 2.176,2.176 2.176,2.176 2.784,-0.002 2.784,-0.002 z m 32.85715,-31.76215 -1.49171,-1.04483 -5.53069,-1.44231 -5.5307,-1.44231 -2.29486,-0.99752 -2.29486,-0.99752 -7.21722,-7.71534 -7.21722,-7.71534 h -6.36452 -6.36451 l -2.7982,-0.70459 -2.7982,-0.7046 -4.1998,2.99692 -4.19981,2.99692 -3.6854,1.79655 -3.6854,1.79656 -1.53303,1.65139 -1.53303,1.6514 -0.59945,-0.37048 -0.59945,-0.37048 1.81248,-1.91027 1.81248,-1.91027 3.75343,-1.9058 3.75343,-1.90581 4.33597,-3.15372 4.33597,-3.15372 h 0.63296 0.63295 l 0.80066,-1.93296 0.80065,-1.93296 1.85583,-1.56157 1.85583,-1.56158 2.28289,-0.42827 2.2829,-0.42827 2.4511,0.73436 2.4511,0.73437 1.58716,1.88623 1.58715,1.88623 0.4586,2.71441 0.4586,2.71441 6.48141,6.95061 6.48141,6.95061 2.56,1.33902 2.56,1.33902 5.61599,1.43504 5.61599,1.43504 1.58401,1.03789 1.58401,1.03788 v 0.62525 0.62524 h -0.4976 -0.49759 z m -32.0731,-24.50594 v -1.87077 l -1.88154,-1.88154 -1.88154,-1.88153 -1.95747,-0.3915 -1.95748,-0.3915 -2.33986,0.78381 -2.33986,0.7838 -1.14468,1.6 -1.14468,1.6 -0.19645,1.28 -0.19644,1.28 1.44,0.20451 1.44,0.20452 v -1.54532 -1.54533 l 1.12,-0.98349 1.12,-0.98349 1.36646,-0.41549 1.36646,-0.41548 1.63028,0.7428 1.63028,0.74281 0.74491,1.79835 0.7449,1.79835 -0.41942,0.67863 -0.41941,0.67863 h 1.63777 1.63777 z"
       id="path1" />
  </g>
  <path
     style="fill:#000080;stroke-width:0.972152"
     d="m 175.50123,380.141 -2.1991,-2.34084 2.99795,-8.28526 c 1.91845,-5.3019 2.63613,-8.50889 1.99312,-8.90629 -1.3045,-0.80623 -1.11964,-1.13665 -4.28037,7.65148 l -2.73044,7.59173 -4.69429,-4.62371 -4.69429,-4.6237 2.90119,-5.14064 c 2.88198,-5.1066 3.64979,-8.08655 2.08355,-8.08655 -0.4497,0 -2.04786,2.2967 -3.55146,5.10379 -1.5036,2.80709 -2.8947,5.29525 -3.09134,5.52924 -0.19664,0.234 -2.27807,-1.45942 -4.62541,-3.76316 l -4.26788,-4.18861 4.79955,-6.72631 c 3.75737,-5.26576 21.43535,-26.82555 32.78608,-39.9854 1.39636,-1.61891 0.70633,-2.54501 -9.77854,-13.12405 -6.6427,-6.70235 -14.52433,-15.97882 -19.16945,-22.56196 l -7.88855,-11.17975 4.78742,-0.84944 c 4.48913,-0.79653 5.14186,-0.63307 10.47574,2.62334 6.45651,3.94176 11.54841,5.59875 10.86019,3.53407 -0.23566,-0.70698 -1.72476,-1.75301 -3.30909,-2.32454 -1.58434,-0.57152 -4.9348,-2.47262 -7.44549,-4.22468 -4.49884,-3.13947 -4.65321,-3.17122 -10.67083,-2.19468 -3.35827,0.54498 -15.88978,0.99417 -27.8478,0.99821 -21.26143,0.007 -21.84144,-0.0457 -26.24811,-2.3932 -2.47843,-1.32029 -8.880922,-3.77843 -14.227757,-5.46251 -10.202548,-3.2135 -17.86523,-6.65602 -19.65627,-8.83073 -1.308279,-1.58854 -18.936294,-39.82313 -18.541443,-40.21579 0.156084,-0.15521 4.221004,3.19129 9.033156,7.43667 7.051613,6.22107 8.690621,8.17116 8.446619,10.04973 -0.718552,5.53217 9.457974,16.28025 20.231862,21.36815 9.230326,4.35898 14.931853,5.41705 29.190233,5.41705 23.38601,0 37.96907,-4.58401 82.1442,-25.82099 34.96988,-16.81162 49.87581,-22.55641 65.59721,-25.28141 11.14888,-1.93244 27.74956,-1.45393 36.4557,1.05083 8.63827,2.48524 10.20759,2.74279 10.20759,1.67525 0,-2.97116 -16.55184,-6.40481 -30.62278,-6.35264 -22.81232,0.0846 -37.64017,4.87503 -83.60506,27.01031 -20.72478,9.98041 -36.67917,17.02509 -42.77469,18.8872 -23.3293,7.12685 -41.40394,8.72413 -55.368534,4.893 -6.716853,-1.84273 -16.683863,-6.48004 -15.80868,-7.35523 0.207453,-0.20744 2.745674,0.43285 5.640493,1.42288 14.086431,4.81755 32.404981,5.08802 48.037991,0.70927 17.69632,-4.95668 31.13991,-11.41363 49.14494,-23.60428 15.48342,-10.48334 29.64158,-16.84925 51.40674,-23.11392 11.38353,-3.27652 12.55361,-3.42235 27.60707,-3.4408 8.64586,-0.0106 18.74672,-0.45676 22.44636,-0.9915 9.65373,-1.39533 21.84489,-7.19746 19.67734,-9.36501 -0.334,-0.334 -3.13052,0.71719 -6.21448,2.33597 -8.23558,4.32288 -13.13785,5.12943 -36.7505,6.0464 -19.79972,0.7689 -22.02469,1.04203 -30.58836,3.75484 -22.94628,7.26899 -35.08761,12.93508 -51.52698,24.04651 -14.14938,9.56361 -29.37989,16.93442 -44.04341,21.31479 -10.53915,3.14833 -12.48971,3.4278 -23.81772,3.4125 -18.499582,-0.025 -33.151822,-4.70574 -41.437886,-13.23763 -4.334789,-4.46339 -4.534132,-6.33437 -0.30818,-2.89249 1.737722,1.4153 4.034431,2.93147 5.103798,3.36926 1.069367,0.4378 10.576089,1.5503 21.12605,2.47222 l 19.181748,1.67622 11.03958,-5.73824 c 6.07177,-3.15604 11.95918,-5.97873 13.08313,-6.27265 1.18149,-0.30896 3.1963,-2.67606 4.77615,-5.61124 1.50292,-2.79226 3.71689,-6.29371 4.91992,-7.781 1.20304,-1.48728 2.18735,-3.43534 2.18735,-4.329 0,-0.89366 0.45769,-2.48006 1.0171,-3.52532 0.55942,-1.04527 0.71137,-2.39518 0.33769,-2.99982 -0.88024,-1.42425 -3.2991,1.76108 -3.2991,4.34448 0,1.02366 -0.9843,3.07807 -2.18734,4.56536 -1.20304,1.48728 -3.40014,4.95852 -4.88244,7.71386 -1.48231,2.75534 -3.66965,5.37848 -4.86076,5.8292 -1.19112,0.45071 -2.27584,0.72383 -2.41051,0.60693 -0.13467,-0.1169 0.89635,-8.26844 2.29116,-18.11453 l 2.53602,-17.90199 7.04617,-7.29114 7.04618,-7.29114 -1.97843,-17.24952 -1.97842,-17.24952 2.15807,-2.29715 c 2.59203,-2.7591 4.13534,-9.90095 1.98639,-9.19231 -0.74995,0.24731 -1.51614,1.49727 -1.70262,2.77768 -0.18649,1.28041 -1.34768,3.52669 -2.58043,4.99173 -1.23275,1.46504 -2.39258,3.03357 -2.57739,3.48562 -0.18482,0.45205 -8.42919,4.99987 -18.32084,10.10627 l -17.98481,9.28435 -3.64557,-2.42466 c -2.00506,-1.33356 -3.64557,-2.72356 -3.64557,-3.0889 0,-0.36532 2.84355,-2.70983 6.31899,-5.21 5.7075,-4.10588 7.73339,-6.50067 5.4993,-6.50067 -0.45083,0 -3.93435,2.18734 -7.74116,4.86076 -3.80681,2.67341 -7.17369,4.86076 -7.48196,4.86076 -0.30826,0 -2.67655,-1.42505 -5.262864,-3.16678 l -4.702387,-3.16677 6.656318,-4.85348 c 5.816493,-4.24112 8.314523,-7.28386 5.979903,-7.28386 -0.40362,0 -3.95165,2.4207 -7.884509,5.37933 l -7.150648,5.37932 -4.753464,-3.05029 c -2.614407,-1.67766 -4.753465,-3.39625 -4.753465,-3.8191 0,-0.42284 5.408353,-4.73656 12.018562,-9.58605 l 12.018564,-8.81724 7.66751,2.38167 c 4.21713,1.30991 8.61495,2.38823 9.77293,2.39625 1.15797,0.008 9.64702,-3.04769 18.86455,-6.79047 9.21753,-3.74279 17.48096,-6.80507 18.36318,-6.80507 0.88222,0 5.21982,2.51545 9.6391,5.58988 l 8.03507,5.58987 7.76942,17.01266 7.76942,17.01266 -4.47323,23.33164 c -6.00838,31.33871 -6.10869,31.83248 -6.86316,33.78228 -0.44123,1.1403 -0.1939,1.70127 0.75006,1.70127 1.48176,0 3.01856,-4.27144 4.1865,-11.6361 0.55485,-3.49872 3.83681,-8.8383 16.85111,-27.41586 15.87603,-22.6626 25.3975,-36.99719 25.3975,-38.23597 0,-0.34474 -0.63684,-0.48535 -1.41522,-0.31247 -0.77836,0.17288 -3.39382,3.3766 -5.81211,7.11938 l -4.39688,6.80507 -0.0208,-4.14816 c -0.0114,-2.28149 -1.11447,-9.20661 -2.45118,-15.38917 -1.33671,-6.18255 -2.43038,-13.18331 -2.43038,-15.55723 0,-2.92922 -0.781,-5.55341 -2.43038,-8.166202 -1.33671,-2.117484 -2.43038,-4.210174 -2.43038,-4.650422 0,-0.440249 7.21823,-5.718846 16.04051,-11.730217 8.82228,-6.011371 16.0405,-11.364378 16.0405,-11.895571 0,-0.531192 -0.82562,-2.588883 -1.83471,-4.572645 -4.93314,-9.69803 -5.01313,-10.228758 -2.39398,-15.881941 1.3186,-2.846077 2.53786,-5.315081 2.70945,-5.486674 0.1716,-0.171593 2.28821,0.648132 4.70358,1.821611 l 4.39158,2.133599 0.63554,7.389358 c 0.70635,8.212773 1.97132,12.332126 4.02945,13.121904 1.6215,0.622229 1.89223,-2.390299 0.35313,-3.929404 -1.10698,-1.106973 -2.56514,-14.927193 -1.57496,-14.927193 0.33407,0 2.25676,0.618918 4.27264,1.375374 2.01588,0.756456 4.86828,1.639728 6.33866,1.962825 2.63175,0.578296 2.67391,0.704589 2.70433,8.103107 0.0285,6.913895 0.1484,7.360191 1.49815,5.573993 1.09838,-1.453543 1.30684,-3.225384 0.82923,-7.048101 -0.56282,-4.504646 -0.4319,-5.106439 1.11094,-5.106439 1.68713,0 11.16786,8.955455 11.0602,10.447409 -0.0291,0.402785 -8.80914,7.950566 -19.51128,16.772844 l -19.45844,16.040507 -4.79251,-0.272138 c -2.63588,-0.149675 -4.79252,0.131622 -4.79252,0.625105 0,1.082074 2.37699,2.077411 4.96112,2.077411 1.04395,0 2.28245,0.97634 2.77464,2.18734 0.48895,1.20304 2.0407,11.81165 3.44833,23.57469 1.40761,11.76303 3.18552,24.14866 3.9509,27.52361 0.76537,3.37495 1.3916,7.83318 1.3916,9.90719 0,2.074 0.49556,4.07719 1.10126,4.45152 0.80013,0.49452 0.9807,-1.61638 0.66034,-7.71984 -0.2425,-4.62025 -0.23164,-8.40046 0.0241,-8.40046 0.25578,0 2.78125,1.78694 5.61217,3.97098 l 5.14712,3.97098 29.30858,-7.85959 c 16.11973,-4.32277 29.81526,-7.85958 30.43451,-7.85958 0.61926,0 10.64705,9.5285 22.28398,21.17446 l 21.15805,21.17446 -0.64834,8.43465 -0.64834,8.43466 -18.75399,14.17596 -18.754,14.17597 -25.09565,-9.22625 c -27.47397,-10.10062 -26.32834,-9.98163 -28.88328,-2.9999 -0.78221,2.1375 -1.45302,3.28487 -1.4907,2.54971 -0.14846,-2.89697 -5.26873,-12.75955 -6.62426,-12.75955 -0.78621,0 -1.21253,0.54684 -0.94738,1.21519 6.68724,16.85598 10.11536,29.60233 11.53019,42.87136 l 1.05219,9.86788 -3.51177,7.26372 c -3.39608,7.02441 -4.34135,10.72109 -2.74146,10.72109 0.42367,0 2.4298,-3.68466 4.45808,-8.18816 l 3.68777,-8.18816 7.23437,-0.67791 7.23435,-0.67792 4.58855,-6.55984 4.58855,-6.55985 5.10635,2.50439 c 2.80849,1.37741 5.10635,2.85942 5.10635,3.29334 0,1.30241 -4.45943,7.90805 -6.67897,9.8934 -2.35262,2.10437 -2.66855,3.49489 -0.79405,3.49489 1.59587,0 5.50812,-4.2033 8.36973,-8.9924 1.19808,-2.00507 2.34653,-3.64557 2.55212,-3.64557 0.2056,0 1.89266,0.72429 3.74903,1.60953 l 3.37522,1.60952 -2.24418,4.46643 c -3.30907,6.58577 -3.87091,8.8411 -2.2025,8.8411 0.77786,0 2.51746,-2.58432 3.92633,-5.83291 1.39131,-3.2081 2.77544,-5.83291 3.07585,-5.83291 1.08319,0 10.20306,4.9077 10.20306,5.4906 0,0.58552 -13.59204,24.64333 -13.92603,24.64898 -0.0936,0.002 -6.73219,0.64941 -14.75245,1.4396 -10.23041,1.00796 -18.8299,2.57009 -28.81528,5.23442 l -14.233,3.79768 -8.05694,-22.49299 c -4.43132,-12.37114 -9.07254,-24.55641 -10.31383,-27.07838 -1.24129,-2.52197 -2.2569,-4.75994 -2.2569,-4.97326 0,-0.21333 1.85924,-0.0282 4.13165,0.41141 5.52936,1.06968 9.47848,1.07705 9.47848,0.0177 0,-0.47645 -3.74528,-1.561 -8.32286,-2.41012 l -8.32286,-1.54386 -16.22398,4.41823 c -8.92318,2.43003 -17.66305,4.7965 -19.42191,5.25882 -3.13374,0.82374 -3.29632,0.70535 -8.09825,-5.89671 -4.65436,-6.39917 -6.68862,-8.10808 -6.68862,-5.61889 0,0.61513 6.2101,9.41294 13.80023,19.55068 l 13.80023,18.43227 4.94984,22.50823 4.94984,22.50823 -17.53488,16.13093 -17.53488,16.13092 -4.81965,11.87253 c -2.6508,6.52987 -5.10265,12.04742 -5.44856,12.26119 -0.3459,0.21379 -1.61852,-0.66469 -2.82803,-1.95215 z m 145.5365,-160.56263 c 1.19455,-0.74517 2.44501,-2.443 2.77881,-3.77295 0.33379,-1.32994 1.32504,-2.44293 2.20278,-2.4733 0.87772,-0.0304 3.65735,-2.59345 6.17693,-5.69575 4.1031,-5.05205 5.05544,-5.70555 9.12809,-6.26377 2.50086,-0.34278 6.20006,-0.62323 8.22044,-0.62323 4.66675,0 6.74889,-0.80212 6.74889,-2.59991 0,-0.91082 -0.61106,-1.22577 -1.70475,-0.87866 -0.9376,0.29759 -5.61715,0.93762 -10.39899,1.42231 l -8.69424,0.88125 -4.9124,5.39828 -4.9124,5.39827 -11.32971,0.64681 -11.32971,0.6468 -4.22472,-2.89642 c -5.40871,-3.70814 -13.93353,-8.01873 -15.85823,-8.01873 -2.91634,0 -1.41642,1.64613 3.61325,3.96546 2.80709,1.29444 7.47303,3.99403 10.36876,5.99909 2.89573,2.00507 6.06738,3.64557 7.0481,3.64557 0.98073,0 1.78314,0.57995 1.78314,1.28878 0,1.6885 3.84859,5.20154 6.31899,5.76805 2.58163,0.59203 6.30302,-0.16989 8.97697,-1.83795 z m 34.28379,-32.41672 c 0,-1.5736 -4.05681,-3.62014 -9.72152,-4.90421 -2.94076,-0.66661 -6.49538,-1.79257 -7.89916,-2.50214 -3.99719,-2.02045 -15.10416,-15.04091 -15.87445,-18.60927 -0.94285,-4.36775 -4.68385,-7.05995 -9.81032,-7.05995 -3.44866,0 -4.58609,0.50975 -6.67396,2.99104 -1.38424,1.64507 -2.51679,3.39494 -2.51679,3.88861 0,0.49366 -0.48388,0.89756 -1.0753,0.89756 -0.59141,0 -2.66938,1.25419 -4.61772,2.78709 -1.94833,1.5329 -5.4808,3.7695 -7.84992,4.97023 -4.52153,2.29162 -8.01188,5.7675 -7.16594,7.13625 0.27434,0.4439 1.43696,-0.0514 2.58359,-1.10062 1.14662,-1.04924 4.05339,-2.89514 6.45946,-4.10198 2.40608,-1.20686 5.68709,-3.18282 7.29114,-4.39103 2.67759,-2.01683 3.67288,-2.1582 12.1519,-1.72606 l 9.23544,0.47069 7.77722,8.06879 c 6.98245,7.24424 8.37329,8.23209 13.61013,9.66663 3.2081,0.8788 7.14531,2.21567 8.74936,2.97079 3.49764,1.64658 5.34684,1.83596 5.34684,0.54758 z"
     id="path2" />
</svg>
