<?xml version="1.0" encoding="UTF-8" standalone="no"?>
<!-- Created with Inkscape (http://www.inkscape.org/) -->

<svg
   version="1.1"
   id="svg1"
   width="384"
   height="408.32001"
   viewBox="0 0 384 408.32001"
   xmlns="http://www.w3.org/2000/svg"
   xmlns:svg="http://www.w3.org/2000/svg">
  <defs
     id="defs1" />
  <g
     id="g1">
    <path
       style="fill:#1a1a1a"
       d="m 170.3578,378.20152 -7.60949,-7.84 -6.94711,-7.14729 -6.94712,-7.14729 3.835,-5.70346 3.83499,-5.70346 15.41696,-18.32473 15.41695,-18.32474 v -0.51157 -0.51158 l -10.84546,-10.83138 -10.84546,-10.83138 -8.19454,-11.73466 -8.19454,-11.73465 -21.51882,0.0898 -21.51881,0.0898 -4.08119,-2.28059 -4.081183,-2.28059 -10.240003,-3.30147 -10.24,-3.30147 -5.008512,-2.59122 -5.008513,-2.59122 -0.850931,-1.34344 -0.850932,-1.34345 L 55.25853,219.84643 44.637974,196.69138 v -0.43342 -0.43342 l 0.961353,0.3689 0.961353,0.36891 15.403654,13.61956 15.403654,13.61957 1.074993,0.44669 1.074993,0.44669 18.630003,1.68267 18.630003,1.68267 8.99912,-4.50814 8.99911,-4.50814 0.29423,-0.50122 0.29423,-0.50122 2.72683,-19.2 2.72684,-19.2 6.93617,-7.04 6.93617,-7.04 -1.79154,-15.19186 -1.79155,-15.19186 -0.34238,-0.34238 -0.34238,-0.34238 -18.36185,9.34857 -18.36186,9.34856 -1.73057,-1.12228 -1.73057,-1.12229 -16.504583,-10.85828 -16.504571,-10.85831 0.184574,-0.50933 0.184574,-0.50933 13.434663,-9.97352 13.434673,-9.97351 0.64533,0.22791 0.64534,0.22792 8.67116,2.39231 8.67116,2.39231 18.61881,-7.44822 18.61881,-7.448212 9.19003,6.007182 9.19003,6.00718 8.24232,17.86993 8.24233,17.86993 -3.81754,19.33301 -3.81754,19.33301 0.45823,-0.2832 0.45824,-0.28321 13.59982,-19.27298 13.59983,-19.27298 -0.11492,-5.67959 -0.11491,-5.6796 -2.56203,-11.69723 -2.56202,-11.69723 0.15371,-3.84 0.15371,-3.84 -3.29045,-5.117162 -3.29046,-5.11716 0.45084,-0.40145 0.45084,-0.40145 16.16,-11.02028 16.16,-11.02029 v -0.27881 -0.27882 l -3.2,-7.00458 -3.2,-7.00458 v -0.43017 -0.43017 l 2.95282,-6.46754 2.95282,-6.46754 0.2283,-0.24779 0.2283,-0.24778 9.45888,4.20505 9.45888,4.20506 7.68,1.92073 7.68,1.92073 2.79136,3.082 2.79136,3.082 1.84864,2.8453 1.84864,2.8453 v 0.45442 0.45441 l -20.48,17.10048 -20.48,17.100472 v 0.40039 0.40038 l 2.87777,22.39942 2.87777,22.39943 0.002,0.78033 0.002,0.78034 3.68,2.34499 3.68,2.34499 3.07982,2.56761 3.07981,2.56761 3.32019,-0.75397 3.32018,-0.75397 26.88,-7.27067 26.88,-7.27067 22.54426,22.4917 22.54425,22.49171 -0.93277,6.08 -0.93278,6.08 -0.0115,2.90203 -0.0115,2.90204 -19.47254,14.82412 -19.47255,14.82412 -24.84745,-9.18964 -24.84746,-9.18964 -1.10527,1.38349 -1.10527,1.38348 -1.66366,4.94909 -1.66365,4.94909 2.21314,7.85091 2.21313,7.85091 0.74529,8 0.74529,8 0.29829,1.42245 0.29828,1.42244 1.75221,-0.2803 1.75222,-0.2803 4.8,-0.39168 4.8,-0.39167 4.45887,-6.42385 4.45888,-6.42384 0.72074,-0.27658 0.72074,-0.27657 18.18038,8.73353 18.18039,8.73354 0.25711,0.24686 0.2571,0.24686 -7.91094,13.76566 -7.91095,13.76567 -1.94616,0.30894 -1.94616,0.30894 -12.48,1.04814 -12.48,1.04814 -15.58431,4.1505 -15.58431,4.15051 -0.51057,-0.54369 -0.51058,-0.5437 -8.30846,-23.06174 -8.30845,-23.06174 -2.64381,-5.25826 -2.6438,-5.25826 h -0.87836 -0.87836 l -17.76953,4.78837 -17.76953,4.78837 -0.31603,0.31603 -0.31602,0.31602 8.48722,11.18765 8.48723,11.18765 5.05756,23.18677 5.05756,23.18678 -0.17372,0.42984 -0.17373,0.42984 -17.33189,15.79954 -17.3319,15.79953 -5.7081,13.71418 -5.70811,13.71419 -0.69535,0.0176 -0.69535,0.0176 z m 13.7815,-7.58943 5.40096,-12.86943 17.43964,-15.95437 17.43964,-15.95437 -0.27483,-0.7762 -0.27484,-0.7762 -4.78487,-21.8969 -4.78487,-21.8969 -11.41798,-15.2231 -11.41798,-15.2231 -2.3731,-3.28574 -2.37309,-3.28575 v -0.71425 -0.71426 l 0.48,0.0147 0.48,0.0146 4.78036,6.70535 4.78037,6.70535 h 0.55614 0.55614 l 19.16002,-5.17137 19.16001,-5.17138 7.82348,1.38694 7.82348,1.38694 0.26666,0.26443 0.26667,0.26444 -0.4307,0.43071 -0.43071,0.4307 -6.44526,-1.12807 -6.44525,-1.12808 -0.31178,0.31178 -0.31178,0.31178 2.37012,4.70559 2.37013,4.70559 8.23095,22.67087 8.23095,22.67087 v 0.20913 0.20913 h 1.02233 1.02233 l 14.17767,-3.79813 14.17767,-3.79813 13.99303,-1.2669 13.99303,-1.2669 0.52347,-0.53497 0.52347,-0.53497 7.13837,-12.37179 7.13838,-12.37179 -0.21488,-0.18231 -0.21487,-0.1823 -5.68859,-2.6459 -5.6886,-2.64591 h -0.25237 -0.25237 l -2.84381,6.12718 -2.84382,6.12718 -0.61672,-0.38116 -0.61673,-0.38115 0.99507,-2.38603 0.99506,-2.38602 1.88834,-3.74476 1.88835,-3.74476 -0.20191,-0.17825 -0.2019,-0.17824 -3.33873,-1.677 -3.33872,-1.67699 h -0.83175 -0.83175 l -2.19608,3.67159 -2.19607,3.67159 -2.50756,2.72038 -2.50756,2.72038 -0.62389,-0.38559 -0.62389,-0.38558 2.21876,-2.32638 2.21877,-2.32639 2.59875,-4.14714 2.59876,-4.14715 -0.11952,-0.099 -0.11952,-0.0989 -5.83033,-2.9153 -5.83034,-2.91529 -4.61894,6.62811 -4.61895,6.62812 -2.99072,0.35807 -2.99072,0.35807 -4.25805,0.40313 -4.25804,0.40313 -3.18095,6.81208 -3.18095,6.81207 -0.44413,1.44 -0.44414,1.44 h -0.66625 -0.66625 l 0.42674,-1.76 0.42674,-1.76 3.35399,-7.04 3.35399,-7.04 -1.08969,-10.05321 -1.0897,-10.0532 -1.94769,-6.5868 -1.9477,-6.58679 -1.06626,-4.8 -1.06626,-4.8 -2.1677,-4.73013 -2.1677,-4.73013 v -0.54987 -0.54987 h 0.49966 0.49965 l 2.37167,4.79306 2.37167,4.79306 0.41047,2.56694 0.41047,2.56694 h 0.44133 0.44132 l 1.06957,-3.36 1.06956,-3.36 1.23765,-2.01379 1.23764,-2.0138 14.60967,5.39179 14.60967,5.39178 10.66551,3.88936 10.6655,3.88936 18.84281,-14.30735 18.8428,-14.30735 0.38596,-5.12 0.38597,-5.12 0.39543,-3.52 0.39542,-3.52 -21.71947,-21.66626 -21.71946,-21.66627 -12.41024,3.31641 -12.41023,3.31641 -16.64,4.46763 -16.64,4.46762 -1.03424,0.29814 -1.03424,0.29814 -4.40576,-3.39967 -4.40576,-3.39967 -1.81553,-1.14738 -1.81553,-1.14737 -0.21642,0.21641 -0.21641,0.21642 0.90195,3.83472 0.90194,3.83472 0.01,4.67777 0.01,4.67777 -0.64,-0.39554 -0.64,-0.39554 v -3.7517 -3.75169 l -1.251,-5.33054 -1.25101,-5.33053 -2.92404,-23.36 -2.92403,-23.36 -0.22978,-0.65642 -0.22978,-0.65642 -3.91518,-0.80867 -3.91518,-0.808672 v -0.61491 -0.61491 h 0.76147 0.76148 l 3.60872,0.74537 3.60872,0.74537 19.4698,-16.19973 19.46981,-16.19973 0.54357,-0.48122 0.54358,-0.48121 -0.39538,-1.24572 -0.39537,-1.24572 -3.54708,-4.0987 -3.54707,-4.09871 -2.27504,-0.79209 -2.27504,-0.79208 -0.49538,0.30615 -0.49537,0.30616 -0.28627,2.40593 -0.28628,2.40593 0.78215,1.87509 0.78215,1.87509 -0.65393,1.96491 -0.65394,1.96491 -0.55621,0.61156 -0.55621,0.61156 0.005,-3.17156 0.005,-3.17156 -0.0321,-4.2251 -0.0321,-4.2251 -3.64898,-0.81526 -3.64897,-0.81526 -3.45838,-1.52793 -3.45838,-1.52793 -0.32619,0.3262 -0.32619,0.32619 0.77892,7.20209 0.77893,7.2021 0.92564,1.41748 0.92565,1.41749 v 1.02029 1.02028 l -0.64455,-0.39835 -0.64455,-0.39836 -1.00551,-1.94443 -1.00551,-1.94444 -0.88883,-8.02053 -0.88882,-8.02053 -0.18112,-0.16515 -0.18111,-0.16516 -4.40852,-1.98929 -4.40853,-1.9893 h -0.26916 -0.26916 l -2.76925,5.82746 -2.76925,5.82746 3.49327,7.6942 3.49327,7.69421 -0.52634,0.46493 -0.52633,0.46494 -16.13227,10.99608 -16.13228,10.99609 3.17228,4.85943 3.17227,4.859432 v 5.001 5.00099 l 2.24,10.31378 2.24,10.31378 0.045,3.32311 0.045,3.32311 0.55004,1.28 0.55003,1.28 0.045,-0.73893 0.045,-0.73894 4.46925,-6.78106 4.46924,-6.78107 h 0.65076 0.65075 v 0.52735 0.52734 l -2.26885,3.15266 -2.26885,3.15265 -3.29417,5.44 -3.29417,5.44 -15.16886,21.47867 -15.16887,21.47867 -0.72487,4.76133 -0.72487,4.76133 -0.99468,3.04 -0.99468,3.04 h -0.58857 -0.58856 v -0.3281 -0.3281 l 1.28,-4.61904 1.28,-4.61903 v -1.76185 -1.76185 l 4.47856,-22.27991 4.47856,-22.27991 -7.07971,-15.33111 -7.07971,-15.3311 -0.96353,-2.33799 -0.96353,-2.33799 -8.50907,-5.50201 -8.50907,-5.50201 h -0.6663 -0.6663 l -17.49995,7.08003 -17.49995,7.08003 -1.28,0.006 -1.28,0.006 -7.96645,-2.28609 -7.96644,-2.28609 h -0.7354 -0.7354 l -12.098163,8.97047 -12.098153,8.97046 -0.177441,0.52186 -0.177442,0.52186 5.462001,3.63489 5.462005,3.63489 3.99544,-3.08627 3.99544,-3.08627 3.310843,-2.37937 3.31084,-2.37937 0.369,0.59706 0.369,0.59705 -6.719843,4.99826 -6.71984,4.99826 v 0.42242 0.42242 l 4.99709,3.28069 4.997103,3.28069 h 0.51424 0.51423 l 7.21734,-5.12 7.21733,-5.12 h 0.39134 0.39133 v 0.60891 0.6089 l -7.0243,4.9911 -7.02429,4.99109 -0.002,0.32 -0.002,0.32 4.14047,2.72 4.14048,2.72 h 0.58356 0.58357 l 18.14264,-9.23048 18.14265,-9.23049 0.64,-1.79351 0.64,-1.79351 1.79951,-1.61601 1.79952,-1.616 0.36475,-2.72 0.36475,-2.72 h 0.63716 0.63716 l -0.31788,3.3083 -0.31789,3.30831 -2.149,1.75392 -2.14899,1.75393 0.0338,2.45777 0.0339,2.45777 1.8087,15.50645 1.8087,15.50645 -6.91548,6.58849 -6.91548,6.58849 -2.70698,18.86506 -2.70698,18.86506 0.11791,0.13921 0.11792,0.13922 2.46232,-0.75571 2.46231,-0.75571 1.88531,-2.5835 1.88531,-2.58351 1.78985,-3.52 1.78985,-3.52 1.34998,-1.21919 1.34998,-1.21919 0.0268,-1.98081 0.0268,-1.98081 1.1578,-2.1732 1.15781,-2.17319 0.38041,0.61551 0.38041,0.61552 -0.89695,2.51768 -0.89695,2.51768 -0.0281,1.34081 -0.0281,1.34081 -1.3481,1.21919 -1.34811,1.21919 -1.27761,2.56 -1.27761,2.56 -2.33317,3.65373 -2.33317,3.65373 -2.88112,1.07508 -2.88111,1.07508 -10.24,5.15858 -10.24,5.15858 -19.840003,-1.80573 -19.840004,-1.80573 -3.52,-3.06818 -3.52,-3.06817 -11.2,-9.89742 -11.2,-9.89743 -0.145634,0.12291 -0.145633,0.12291 10.085272,21.90927 10.085273,21.90928 4.460361,2.51808 4.460361,2.51808 11.086512,3.58103 11.086512,3.58103 3.741183,2.19265 3.74118,2.19264 h 21.49652 21.49652 l 6.49003,-0.97478 6.49003,-0.97479 4.54576,3.11897 4.54576,3.11898 3.04,1.14276 3.04,1.14276 v 0.55305 0.55305 h -0.62705 -0.62705 l -2.73295,-1.07353 -2.73295,-1.07353 -4.48039,-2.99826 -4.48038,-2.99827 -4.97493,0.78044 -4.97492,0.78044 -0.35219,0.35219 -0.35219,0.35219 8.01393,11.41917 8.01393,11.41916 10.91357,10.87294 10.91357,10.87294 v 0.52651 0.52651 l -15.1901,18.04055 -15.19009,18.04055 -4.09023,5.9841 -4.09022,5.98409 4.69171,4.72323 4.69171,4.72324 3.18431,-5.74733 3.18432,-5.74733 h 0.52429 0.5243 v 0.6563 0.65631 l -3.16827,5.58369 -3.16827,5.5837 4.88134,4.9279 4.88133,4.92789 0.4546,-0.28096 0.45459,-0.28095 2.70213,-7.36694 2.70214,-7.36694 h 0.5702 0.57021 v 0.59592 0.59592 l -2.92356,7.81547 -2.92356,7.81547 2.73681,2.78861 2.73681,2.78861 h 0.35693 0.35693 z m -81.68272,-124.35368 -4.581393,-0.87509 -3.41861,-1.11042 -3.4186,-1.11042 -5.068433,-2.60821 -5.06843,-2.60821 -4.53157,-4.52797 -4.53157,-4.52798 -2.142128,-3.63791 -2.142129,-3.63791 0.255072,-0.76521 0.255072,-0.76522 2.39849,3.2674 2.39849,3.26739 3.121278,2.29123 3.121278,2.29123 4.815466,2.22488 4.815464,2.22489 6.91182,1.73418 6.911833,1.73419 11.84,0.007 11.84,0.007 6.41358,-1.71943 6.41358,-1.71943 7.44769,-2.56807 7.44768,-2.56808 6.61874,-3.16554 6.61873,-3.16555 6.72,-4.10083 6.72,-4.10082 5.93977,-4.22688 5.93977,-4.22687 6.86023,-3.49367 6.86023,-3.49367 8.96,-3.55243 8.96,-3.55243 9.35821,-2.88834 9.35821,-2.88833 5.345,-0.6702 5.345,-0.67021 10.25679,-0.0101 10.25679,-0.0101 7.58066,-0.62807 7.58067,-0.62807 3.88816,-1.00752 3.88815,-1.00752 3.60947,-1.82206 3.60947,-1.82205 0.84008,-1.01222 0.84007,-1.01223 h 0.88163 0.88164 v 0.51964 0.51965 l -1.79127,1.32434 -1.79128,1.32435 -3.32462,1.68471 -3.32463,1.68472 -5.2841,1.30431 -5.2841,1.30431 -19.52,0.54435 -19.52,0.54434 -7.36,1.93914 -7.36,1.93915 -6.72,2.34099 -6.72,2.341 -7.04,2.87533 -7.04,2.87533 -5.47381,2.82679 -5.47381,2.82679 -4.76619,3.22904 -4.76619,3.22904 -6.08,4.06377 -6.08,4.06377 -6.08,3.2336 -6.08,3.2336 -7.25921,2.91243 -7.25921,2.91243 -6.7813,1.97544 -6.7813,1.97543 -4.73579,0.90611 -4.73579,0.9061 -8.4237,-0.003 -8.4237,-0.003 -5.86984,-0.95201 -5.869833,-0.95202 -5.01017,-1.60849 -5.010163,-1.6085 -4.114892,-2.22869 -4.114892,-2.22869 -0.235675,0.23568 -0.235675,0.23567 3.710567,2.9533 3.710567,2.9533 4.327235,2.2815 4.327238,2.2815 6.23276,1.68126 6.232773,1.68126 11.52,0.004 11.52,0.004 7.43402,-1.3944 7.43403,-1.39439 7.60597,-2.18964 7.60598,-2.18963 6.72,-2.45628 6.72,-2.45627 24.96,-12.38604 24.96,-12.38605 8,-3.36073 8,-3.36073 7.04,-2.30705 7.04,-2.30705 4.14867,-1.04632 4.14867,-1.04633 5.13133,-0.92316 5.13133,-0.92315 7.36,-0.37906 7.36,-0.37906 6.08,0.74821 6.08,0.7482 5.0967,1.29859 5.0967,1.29858 2.14936,0.89806 2.14936,0.89806 -0.36481,0.59027 -0.3648,0.59026 -4.4549,-1.50719 -4.45489,-1.5072 -4.98636,-0.9322 -4.98636,-0.93219 -5.44,-0.43964 -5.44,-0.43963 -7.36,0.72788 -7.36,0.72788 -7.2629,1.62051 -7.26289,1.62051 -7.45711,2.56581 -7.4571,2.56581 -8,3.40304 -8,3.40304 -24.32,12.08343 -24.32,12.08344 -7.36,2.67137 -7.36,2.67138 -5.5777,1.66205 -5.5777,1.66205 -7.8623,1.59926 -7.8623,1.59927 -11.52,0.2748 -11.52,0.27479 z m 210.15753,-25.36311 -2.42388,-0.42004 -1.91964,-1.83914 -1.91964,-1.83913 -0.36587,-1.45773 -0.36586,-1.45774 h -1.53301 -1.533 l -5.37607,-3.72674 -5.37607,-3.72675 -4.86155,-2.11967 -4.86154,-2.11968 v -0.55358 -0.55358 h 0.83385 0.83386 l 5.08614,2.46413 5.08615,2.46413 4.36888,3.05952 4.36889,3.05953 9.39111,-0.53089 9.39112,-0.53089 2.36886,0.11025 2.36886,0.11025 4.91173,-5.74301 4.91173,-5.74302 0.71941,-0.007 0.71941,-0.007 7.55584,-0.66287 7.55584,-0.66286 1.5415,-0.58608 1.5415,-0.58608 0.36059,0.58344 0.36058,0.58343 -1.24131,0.66433 -1.2413,0.66432 -7.25662,0.64231 -7.25662,0.64231 -1.31576,0.005 -1.31576,0.005 -5.07717,6.09432 -5.07717,6.09432 -1.2401,-0.17432 -1.2401,-0.17432 -0.51004,1.94404 -0.51004,1.94404 -1.77693,1.67633 -1.77693,1.67634 -2.24,0.57654 -2.24,0.57654 z m 6.43982,-2.53646 2.09595,-1.27791 0.62405,-1.64137 0.62405,-1.64137 v -0.59833 -0.59834 h -1.29584 -1.29584 l -0.59353,1.56109 -0.59352,1.56109 -1.26856,0.67891 -1.26856,0.67891 h -2.3453 -2.3453 l -1.79355,-1.92 -1.79355,-1.92 h -0.38323 -0.38322 v 1.024 1.024 l 2.176,2.176 2.176,2.176 2.784,-0.002 2.784,-0.002 z m 32.85715,-31.76215 -1.49171,-1.04483 -5.53069,-1.44231 -5.5307,-1.44231 -2.29486,-0.99752 -2.29486,-0.99752 -7.21722,-7.71534 -7.21722,-7.71534 h -6.36452 -6.36451 l -2.7982,-0.70459 -2.7982,-0.7046 -4.1998,2.99692 -4.19981,2.99692 -3.6854,1.79655 -3.6854,1.79656 -1.53303,1.65139 -1.53303,1.6514 -0.59945,-0.37048 -0.59945,-0.37048 1.81248,-1.91027 1.81248,-1.91027 3.75343,-1.9058 3.75343,-1.90581 4.33597,-3.15372 4.33597,-3.15372 h 0.63296 0.63295 l 0.80066,-1.93296 0.80065,-1.93296 1.85583,-1.56157 1.85583,-1.56158 2.28289,-0.42827 2.2829,-0.42827 2.4511,0.73436 2.4511,0.73437 1.58716,1.88623 1.58715,1.88623 0.4586,2.71441 0.4586,2.71441 6.48141,6.95061 6.48141,6.95061 2.56,1.33902 2.56,1.33902 5.61599,1.43504 5.61599,1.43504 1.58401,1.03789 1.58401,1.03788 v 0.62525 0.62524 h -0.4976 -0.49759 z m -32.0731,-24.50594 v -1.87077 l -1.88154,-1.88154 -1.88154,-1.88153 -1.95747,-0.3915 -1.95748,-0.3915 -2.33986,0.78381 -2.33986,0.7838 -1.14468,1.6 -1.14468,1.6 -0.19645,1.28 -0.19644,1.28 1.44,0.20451 1.44,0.20452 v -1.54532 -1.54533 l 1.12,-0.98349 1.12,-0.98349 1.36646,-0.41549 1.36646,-0.41548 1.63028,0.7428 1.63028,0.74281 0.74491,1.79835 0.7449,1.79835 -0.41942,0.67863 -0.41941,0.67863 h 1.63777 1.63777 z"
       id="path1" />
  </g>
</svg>
