<svg xmlns="http://www.w3.org/2000/svg" version="1.1" xmlns:xlink="http://www.w3.org/1999/xlink" xmlns:svgjs="http://svgjs.dev/svgjs" width="1000" height="113" viewBox="0 0 1000 113"><g transform="matrix(1,0,0,1,-0.6060590997846589,-0.5356060503127367)"><svg viewBox="0 0 396 45" data-background-color="#f7d65a" preserveAspectRatio="xMidYMid meet" height="113" width="1000" xmlns="http://www.w3.org/2000/svg" xmlns:xlink="http://www.w3.org/1999/xlink"><g id="tight-bounds" transform="matrix(1,0,0,1,0.23999940351473015,0.21329444481480664)"><svg viewBox="0 0 395.52 44.57341087912767" height="44.57341087912767" width="395.52"><g><svg viewBox="0 0 465.1331630263203 52.41851635588706" height="44.57341087912767" width="395.52"><g><rect width="3.4205180180049015" height="38.11910921683537" x="57.238409359087925" y="7.149703569525844" fill="#000000" opacity="1" stroke-width="0" stroke="transparent" fill-opacity="1" class="rect-o-0" data-fill-palette-color="primary" rx="1%" id="o-0" data-palette-color="#000000"></rect></g><g transform="matrix(1,0,0,1,69.61316302632031,7.244527224294089)"><svg viewBox="0 0 395.52 37.92946190729888" height="37.92946190729888" width="395.52"><g id="textblocktransform"><svg viewBox="0 0 395.52 37.92946190729888" height="37.92946190729888" width="395.52" id="textblock"><g><svg viewBox="0 0 395.52 37.92946190729888" height="37.92946190729888" width="395.52"><g transform="matrix(1,0,0,1,0,0)"><svg width="395.52" viewBox="2.0999999046325684 -35.5 371.0299987792969 36" height="37.92946190729888" data-palette-color="#000000"><g class="undefined-text-0" data-fill-palette-color="primary" id="text-0"><path d="M15.6 0.5L15.6 0.5Q11.25 0.5 8.3-0.85 5.35-2.2 3.78-4.33 2.2-6.45 2.1-8.8L2.1-8.8Q2.1-9.2 2.43-9.53 2.75-9.85 3.2-9.85L3.2-9.85 5.75-9.85Q6.35-9.85 6.65-9.55 6.95-9.25 7.05-8.85L7.05-8.85Q7.35-7.65 8.3-6.48 9.25-5.3 11.03-4.53 12.8-3.75 15.6-3.75L15.6-3.75Q19.9-3.75 21.93-5.28 23.95-6.8 23.95-9.35L23.95-9.35Q23.95-11.1 22.88-12.18 21.8-13.25 19.6-14.1 17.4-14.95 13.9-15.95L13.9-15.95Q10.25-17 7.85-18.25 5.45-19.5 4.28-21.35 3.1-23.2 3.1-26.05L3.1-26.05Q3.1-28.75 4.55-30.88 6-33 8.75-34.25 11.5-35.5 15.35-35.5L15.35-35.5Q18.45-35.5 20.78-34.68 23.1-33.85 24.65-32.48 26.2-31.1 27-29.53 27.8-27.95 27.85-26.45L27.85-26.45Q27.85-26.1 27.6-25.78 27.35-25.45 26.8-25.45L26.8-25.45 24.15-25.45Q23.8-25.45 23.43-25.65 23.05-25.85 22.85-26.4L22.85-26.4Q22.55-28.45 20.55-29.85 18.55-31.25 15.35-31.25L15.35-31.25Q12.1-31.25 10.08-30 8.05-28.75 8.05-26.1L8.05-26.1Q8.05-24.4 9-23.28 9.95-22.15 12-21.3 14.05-20.45 17.35-19.5L17.35-19.5Q21.35-18.4 23.9-17.18 26.45-15.95 27.68-14.13 28.9-12.3 28.9-9.45L28.9-9.45Q28.9-6.3 27.25-4.08 25.6-1.85 22.63-0.68 19.65 0.5 15.6 0.5ZM35.65 0L33.1 0Q32.7 0 32.4-0.3 32.1-0.6 32.1-1L32.1-1Q32.1-1.25 32.15-1.55L32.15-1.55 44.55-33.9Q44.75-34.4 45.1-34.7 45.45-35 46.15-35L46.15-35 49.55-35Q50.25-35 50.6-34.7 50.95-34.4 51.15-33.9L51.15-33.9 63.5-1.55Q63.6-1.25 63.6-1L63.6-1Q63.6-0.6 63.3-0.3 63 0 62.6 0L62.6 0 60.05 0Q59.45 0 59.17-0.3 58.9-0.6 58.8-0.85L58.8-0.85 56.05-7.95 39.65-7.95 36.9-0.85Q36.85-0.6 36.55-0.3 36.25 0 35.65 0L35.65 0ZM47.85-30L41.1-12.25 54.6-12.25 47.85-30ZM72.5 0L70.09 0Q69.55 0 69.25-0.33 68.94-0.65 68.94-1.15L68.94-1.15 68.94-33.8Q68.94-34.35 69.25-34.68 69.55-35 70.09-35L70.09-35 72.39-35Q73-35 73.3-34.73 73.59-34.45 73.64-34.3L73.64-34.3 90.25-8.8 90.25-33.8Q90.25-34.35 90.55-34.68 90.84-35 91.39-35L91.39-35 93.8-35Q94.34-35 94.67-34.68 95-34.35 95-33.8L95-33.8 95-1.2Q95-0.7 94.67-0.35 94.34 0 93.84 0L93.84 0 91.44 0Q90.89 0 90.62-0.3 90.34-0.6 90.25-0.7L90.25-0.7 73.69-25.95 73.69-1.15Q73.69-0.65 73.37-0.33 73.05 0 72.5 0L72.5 0Z" fill="#000000" data-fill-palette-color="primary"></path><path d="M112.1 0L100.5 0Q99.95 0 99.65-0.33 99.35-0.65 99.35-1.15L99.35-1.15 99.35-33.8Q99.35-34.35 99.65-34.68 99.95-35 100.5-35L100.5-35 111.85-35Q117-35 120.15-33.45 123.3-31.9 124.75-28.88 126.2-25.85 126.25-21.45L126.25-21.45Q126.3-19.2 126.3-17.5 126.3-15.8 126.25-13.6L126.25-13.6Q126.15-9 124.73-5.98 123.3-2.95 120.23-1.48 117.15 0 112.1 0L112.1 0ZM104.25-30.75L104.25-4.25 111.85-4.25Q115.3-4.25 117.35-5.2 119.4-6.15 120.33-8.25 121.25-10.35 121.3-13.8L121.3-13.8Q121.4-15.3 121.4-16.43 121.4-17.55 121.4-18.68 121.4-19.8 121.3-21.25L121.3-21.25Q121.2-26.1 119-28.43 116.8-30.75 111.6-30.75L111.6-30.75 104.25-30.75ZM156 0L134.95 0Q134.4 0 134.1-0.33 133.8-0.65 133.8-1.15L133.8-1.15 133.8-33.8Q133.8-34.35 134.1-34.68 134.4-35 134.95-35L134.95-35 155.6-35Q156.15-35 156.45-34.68 156.75-34.35 156.75-33.8L156.75-33.8 156.75-31.9Q156.75-31.35 156.45-31.05 156.15-30.75 155.6-30.75L155.6-30.75 138.6-30.75 138.6-19.8 154.5-19.8Q155.05-19.8 155.35-19.48 155.65-19.15 155.65-18.6L155.65-18.6 155.65-16.75Q155.65-16.25 155.35-15.93 155.05-15.6 154.5-15.6L154.5-15.6 138.6-15.6 138.6-4.25 156-4.25Q156.55-4.25 156.85-3.95 157.15-3.65 157.15-3.1L157.15-3.1 157.15-1.15Q157.15-0.65 156.85-0.33 156.55 0 156 0L156 0ZM167.7 0L165.25 0Q164.75 0 164.42-0.33 164.09-0.65 164.09-1.15L164.09-1.15 164.09-33.8Q164.09-34.35 164.42-34.68 164.75-35 165.25-35L165.25-35 167.75-35Q168.34-35 168.65-34.7 168.95-34.4 169.05-34.2L169.05-34.2 179.59-14 190.25-34.2Q190.34-34.4 190.62-34.7 190.9-35 191.5-35L191.5-35 193.95-35Q194.5-35 194.82-34.68 195.15-34.35 195.15-33.8L195.15-33.8 195.15-1.15Q195.15-0.65 194.82-0.33 194.5 0 193.95 0L193.95 0 191.5 0Q191 0 190.67-0.33 190.34-0.65 190.34-1.15L190.34-1.15 190.34-25.75 182-9.45Q181.8-8.95 181.4-8.68 181-8.4 180.4-8.4L180.4-8.4 178.84-8.4Q178.2-8.4 177.84-8.68 177.5-8.95 177.25-9.45L177.25-9.45 168.84-25.75 168.84-1.15Q168.84-0.65 168.52-0.33 168.2 0 167.7 0L167.7 0ZM207.59 0L204.94 0Q204.39 0 204.09-0.33 203.79-0.65 203.79-1.15L203.79-1.15 203.79-33.85Q203.79-34.35 204.09-34.68 204.39-35 204.94-35L204.94-35 207.59-35Q208.14-35 208.44-34.68 208.74-34.35 208.74-33.85L208.74-33.85 208.74-1.15Q208.74-0.65 208.44-0.33 208.14 0 207.59 0L207.59 0ZM221.14 0L218.59 0Q218.04 0 217.74-0.33 217.44-0.65 217.44-1.15L217.44-1.15 217.44-33.8Q217.44-34.35 217.74-34.68 218.04-35 218.59-35L218.59-35 230.79-35Q236.44-35 239.74-32.35 243.04-29.7 243.04-24.5L243.04-24.5Q243.04-20.65 241.12-18.23 239.19-15.8 235.89-14.85L235.89-14.85 243.59-1.55Q243.74-1.25 243.74-1L243.74-1Q243.74-0.6 243.42-0.3 243.09 0 242.69 0L242.69 0 240.29 0Q239.44 0 239.04-0.45 238.64-0.9 238.34-1.35L238.34-1.35 231.09-14.05 222.34-14.05 222.34-1.15Q222.34-0.65 222.02-0.33 221.69 0 221.14 0L221.14 0ZM222.34-30.8L222.34-18.3 230.59-18.3Q234.34-18.3 236.19-19.88 238.04-21.45 238.04-24.55L238.04-24.55Q238.04-27.6 236.22-29.2 234.39-30.8 230.59-30.8L230.59-30.8 222.34-30.8ZM262.79 0.5L262.79 0.5Q258.49 0.5 255.44-0.98 252.39-2.45 250.74-5.53 249.09-8.6 248.89-13.25L248.89-13.25Q248.84-15.45 248.84-17.48 248.84-19.5 248.89-21.7L248.89-21.7Q249.09-26.3 250.81-29.38 252.54-32.45 255.61-33.98 258.69-35.5 262.79-35.5L262.79-35.5Q266.84-35.5 269.91-33.98 272.99-32.45 274.74-29.38 276.49-26.3 276.64-21.7L276.64-21.7Q276.74-19.5 276.74-17.48 276.74-15.45 276.64-13.25L276.64-13.25Q276.49-8.6 274.81-5.53 273.14-2.45 270.09-0.98 267.04 0.5 262.79 0.5ZM262.79-3.75L262.79-3.75Q266.59-3.75 269.01-6.05 271.44-8.35 271.64-13.5L271.64-13.5Q271.74-15.75 271.74-17.53 271.74-19.3 271.64-21.5L271.64-21.5Q271.54-24.95 270.36-27.1 269.19-29.25 267.24-30.25 265.29-31.25 262.79-31.25L262.79-31.25Q260.29-31.25 258.34-30.25 256.39-29.25 255.21-27.1 254.04-24.95 253.89-21.5L253.89-21.5Q253.84-19.3 253.84-17.53 253.84-15.75 253.89-13.5L253.89-13.5Q254.09-8.35 256.54-6.05 258.99-3.75 262.79-3.75ZM287.74 0L285.19 0Q284.64 0 284.34-0.33 284.04-0.65 284.04-1.15L284.04-1.15 284.04-33.8Q284.04-34.35 284.34-34.68 284.64-35 285.19-35L285.19-35 297.39-35Q303.04-35 306.34-32.35 309.64-29.7 309.64-24.5L309.64-24.5Q309.64-20.65 307.71-18.23 305.79-15.8 302.49-14.85L302.49-14.85 310.19-1.55Q310.34-1.25 310.34-1L310.34-1Q310.34-0.6 310.01-0.3 309.69 0 309.29 0L309.29 0 306.89 0Q306.04 0 305.64-0.45 305.24-0.9 304.94-1.35L304.94-1.35 297.69-14.05 288.94-14.05 288.94-1.15Q288.94-0.65 288.61-0.33 288.29 0 287.74 0L287.74 0ZM288.94-30.8L288.94-18.3 297.19-18.3Q300.94-18.3 302.79-19.88 304.64-21.45 304.64-24.55L304.64-24.55Q304.64-27.6 302.81-29.2 300.99-30.8 297.19-30.8L297.19-30.8 288.94-30.8ZM338.98 0L317.93 0Q317.38 0 317.08-0.33 316.78-0.65 316.78-1.15L316.78-1.15 316.78-33.8Q316.78-34.35 317.08-34.68 317.38-35 317.93-35L317.93-35 338.58-35Q339.13-35 339.43-34.68 339.73-34.35 339.73-33.8L339.73-33.8 339.73-31.9Q339.73-31.35 339.43-31.05 339.13-30.75 338.58-30.75L338.58-30.75 321.58-30.75 321.58-19.8 337.48-19.8Q338.03-19.8 338.33-19.48 338.63-19.15 338.63-18.6L338.63-18.6 338.63-16.75Q338.63-16.25 338.33-15.93 338.03-15.6 337.48-15.6L337.48-15.6 321.58-15.6 321.58-4.25 338.98-4.25Q339.53-4.25 339.83-3.95 340.13-3.65 340.13-3.1L340.13-3.1 340.13-1.15Q340.13-0.65 339.83-0.33 339.53 0 338.98 0L338.98 0ZM350.63 0L348.23 0Q347.68 0 347.38-0.33 347.08-0.65 347.08-1.15L347.08-1.15 347.08-33.8Q347.08-34.35 347.38-34.68 347.68-35 348.23-35L348.23-35 350.53-35Q351.13-35 351.43-34.73 351.73-34.45 351.78-34.3L351.78-34.3 368.38-8.8 368.38-33.8Q368.38-34.35 368.68-34.68 368.98-35 369.53-35L369.53-35 371.93-35Q372.48-35 372.81-34.68 373.13-34.35 373.13-33.8L373.13-33.8 373.13-1.2Q373.13-0.7 372.81-0.35 372.48 0 371.98 0L371.98 0 369.58 0Q369.03 0 368.76-0.3 368.48-0.6 368.38-0.7L368.38-0.7 351.83-25.95 351.83-1.15Q351.83-0.65 351.51-0.33 351.18 0 350.63 0L350.63 0Z" fill="#000000" data-fill-palette-color="primary"></path></g></svg></g></svg></g></svg></g></svg></g><g><svg viewBox="0 0 48.28417370986043 52.41851635588706" height="52.41851635588706" width="48.28417370986043"><g><svg xmlns="http://www.w3.org/2000/svg" version="1.0" viewBox="0.22085082530975342 0.2357143759727478 467.46148681640625 507.48797607421875" preserveAspectRatio="xMidYMid meet" x="0" y="0" height="52.41851635588706" width="48.28417370986043" class="icon-icon-0" data-fill-palette-color="accent" id="icon-0"><g transform="translate(0,508) scale(0.084783,-0.084783)" fill="#000000" stroke="none" data-fill-palette-color="accent"><path d="M5165 5971c-24-11-87-67-157-139-133-138-197-185-283-207-138-35-252-10-499 113-143 71-179 86-220 86-45 1-52-2-72-32-29-42-39-120-30-236 8-127 34-233 116-482 80-244 101-330 103-424 2-94-19-156-67-205-55-54-103-69-351-110-382-64-629-137-864-254-466-233-817-648-1036-1226-56-148-97-285-186-623-116-441-126-463-304-649-231-242-406-355-811-523-208-86-298-136-364-200-89-86-123-169-136-325-15-189 91-343 316-459 47-24 114-52 150-61 93-24 170-10 170 31 0 8-47 64-104 125-145 153-180 234-142 334 31 79 168 187 331 260 78 35 537 218 640 256 259 95 372 91 505-21l48-40 978 2 979 3-3 75c-9 195-60 234-325 249-75 4-140 10-142 13-9 8 30 100 95 228 116 227 275 443 366 496 41 24 52 26 127 22 94-5 147-27 195-82 40-46 51-84 67-237 10-93 21-146 44-204 114-295 454-621 644-616 65 1 94 21 130 91 32 63 36 134 11 183-9 18-61 78-114 134-237 246-310 441-310 829 0 394 77 683 246 921 24 34 105 128 180 210 239 261 286 362 286 613-1 145-11 222-53 378-71 269-47 399 103 567 102 115 111 155 75 346-40 209-55 301-76 484-27 230-47 281-118 311-44 19-90 17-138-5z" fill="#000000" data-fill-palette-color="accent"></path></g></svg></g></svg></g></svg></g><defs></defs></svg><rect width="395.52" height="44.57341087912767" fill="none" stroke="none" visibility="hidden"></rect></g></svg></g></svg>